# xmcd
#
# Track frame offsets:
#	150
#	20945
#	39677
#	58297
#	75887
#	92667
#	108697
#	124957
#	145397
#	162550
#
# Disc length: 2374 seconds
#
# Revision: 1
# Processed by: cddbd v1.5.1PL0 Copyright (c) Steve Scherf et al.
# Submitted via: CDex 1.50Beta5
#
DISCID=9109440a
DTITLE=木原さとみ - SATOMI from Tokyo Performance Doll
DYEAR=1993
DGENRE=Pop
TTITLE0=In the Arm of Night
TTITLE1=素顔のくちびる
TTITLE2=スキャンダルが終わる
TTITLE3=Cherry Merry Kiss!
TTITLE4=風酒花伝
TTITLE5=Night Rain
TTITLE6=19××
TTITLE7=さよならにKissを
TTITLE8=星屑のフリータイム
TTITLE9=もしも…の春
EXTD=
EXTT0=
EXTT1=
EXTT2=
EXTT3=
EXTT4=
EXTT5=
EXTT6=
EXTT7=
EXTT8=
EXTT9=
PLAYORDER=
